<?xml version="1.0" standalone="no"?><!DOCTYPE svg PUBLIC "-//W3C//DTD SVG 1.1//EN" "http://www.w3.org/Graphics/SVG/1.1/DTD/svg11.dtd"><svg t="1694571720431" class="icon" viewBox="0 0 1024 1024" version="1.1" xmlns="http://www.w3.org/2000/svg" p-id="12479" xmlns:xlink="http://www.w3.org/1999/xlink" width="200" height="200"><path d="M473.344 555.52h330.026667c2.432 0 4.48 2.133333 4.437333 4.522667-2.901333 211.029333-213.973333 332.8-411.648 279.637333-118.314667-31.573333-196.266667-122.965333-219.306667-241.706667a320.298667 320.298667 0 0 1 67.072-265.514666c58.88-71.04 127.018667-114.517333 219.392-116.181334a4.522667 4.522667 0 0 1 4.522667 4.437334l1.194667 330.581333a4.266667 4.266667 0 0 0 4.266666 4.266667zM554.666667 464.128V140.544c0-2.432 2.048-4.48 4.48-4.437333C732.288 138.538667 896 295.125333 896 468.394667h-337.066667a4.266667 4.266667 0 0 1-4.266666-4.266667z" p-id="12480" fill="#2c2c2c"></path></svg>